<?xml version="1.0" encoding="UTF-8"?>
<svg width="504px" height="54px" viewBox="0 0 504 54" version="1.1" xmlns="http://www.w3.org/2000/svg"
    xmlns:xlink="http://www.w3.org/1999/xlink">
    <!-- Generator: Sketch 51.2 (57519) - http://www.bohemiancoding.com/sketch -->
    <title>SurahTitle-Light</title>
    <desc>Created with Sketch.</desc>
    <defs></defs>
    <g id="PC" stroke="none" stroke-width="1" fill="none" fill-rule="evenodd">
        <g id="Desktop-Concept1-1" transform="translate(-780.000000, -126.000000)">
            <g id="SECTION" transform="translate(747.000000, 76.000000)">
                <g id="Group-7" transform="translate(34.000000, 51.000000)">
                    <g id="SurahTitle-Light">
                        <polygon id="Fill-1" stroke="#035B73" stroke-width="1"
                            points="252.112275 0 249.887725 0 7.67386155e-13 0 7.67386155e-13 25.9998081 7.67386155e-13 52 249.887725 52 252.112275 52 502 52 502 25.9998081 502 0">
                        </polygon>
                        <g id="Group" stroke-width="1" fill-rule="evenodd" transform="translate(6.325833, 3.387380)">
                            <path
                                d="M47.6864756,42.0387458 C44.5380184,42.3612244 33.3968716,41.5064431 31.3070877,35.602723 C31.3070877,35.602723 38.9301678,39.0760461 36.6162686,32.021778 C34.1876007,24.6179323 42.490256,24.1340208 47.2911111,27.7149658 C47.2911111,27.7149658 41.6430463,26.795534 45.032337,32.8986256 C47.6674981,37.6436681 41.4736043,37.538369 41.4736043,36.8608929 C41.4736043,36.8608929 43.0189149,33.3767302 40.0615881,33.3767302 C36.6727492,33.3767302 37.8095917,36.8291483 40.1180688,38.3126273 C42.3772947,39.7643618 49.0984918,39.2320592 50.7508896,36.3018783 C52.7073793,32.8328137 50.9623532,31.6346488 50.9623532,31.6346488 C50.9623532,31.6346488 53.922391,30.7318635 53.6169437,29.5054383 C53.1931129,27.802457 52.0463298,28.3858607 51.1882758,28.3440507 C51.1882758,28.3440507 48.814733,25.1796567 45.4340274,23.0032164 C48.814733,20.8271632 51.1882758,17.6627693 51.1882758,17.6627693 C52.0463298,17.6209593 53.1931129,18.204363 53.6169437,16.5013817 C53.922391,15.2749564 50.9623532,14.3721711 50.9623532,14.3721711 C50.9623532,14.3721711 52.7073793,13.1740063 50.7508896,9.70494164 C49.0984918,6.77476081 42.3772947,6.24245817 40.1180688,7.69419263 C37.8095917,9.17728456 36.6727492,12.6300898 40.0615881,12.6300898 C43.0189149,12.6300898 41.4736043,9.14592709 41.4736043,9.14592709 C41.4736043,8.46845101 47.6674981,8.36276474 45.032337,13.1081943 C41.6430463,19.211286 47.2911111,18.2918542 47.2911111,18.2918542 C42.490256,21.8727992 34.1876007,21.3888877 36.6162686,13.985042 C38.9301678,6.93077387 31.3070877,10.404097 31.3070877,10.404097 C33.3968716,4.50037682 44.5380184,3.64559557 47.6864756,3.96807419 C52.8826952,4.50037682 63.0180346,10.3386721 66.2121282,15.5335587 C69.1771363,20.356027 85.8253721,22.573503 89.4591111,23.0032164 C85.8253721,23.4333169 69.1771363,25.6507929 66.2121282,30.4732612 C63.0180346,35.6677607 52.8826952,41.5064431 47.6864756,42.0387458 Z M75.0231093,44.6421896 C82.3091129,42.8130042 83.2616025,36.8926375 78.9767546,35.602723 C72.7074027,33.7154682 75.3055125,40.3934467 77.6776997,39.0384946 C77.6776997,39.0384946 76.9836655,44.7501986 69.2620832,41.9419635 C64.2380166,40.1147137 68.2454315,37.0544575 68.6972767,36.1834168 C69.1491219,35.3123761 69.8268896,32.9044326 67.3417411,32.8986256 C67.3417411,32.8986256 73.7705944,26.1490282 90.1915521,25.021708 L90.1608266,23.0032164 L90.1915521,20.985112 C73.7705944,19.8574046 67.3417411,13.1081943 67.3417411,13.1081943 C69.8268896,13.1023874 69.1491219,10.6944438 68.6972767,9.82340317 C68.2454315,8.9523625 64.2380166,5.89171913 69.2620832,4.06485649 C76.9836655,1.25662135 77.6776997,6.9683254 77.6776997,6.9683254 C75.3055125,5.61337324 72.7074027,12.2913518 78.9767546,10.404097 C83.2616025,9.1141825 82.3091129,3.19381581 75.0231093,1.36463039 C65.1602326,-1.1114479 63.2186538,6.29084932 63.2186538,6.29084932 C58.3613181,3.4841627 42.9985818,-0.580693784 34.3570427,5.08107061 C26.5853055,10.1729808 30.290436,11.4203111 24.190526,17.3724224 C15.9931507,25.3712857 4.42229919,16.8885109 4.42229919,16.8885109 C5.55191215,16.7917286 6.75156112,17.3244183 6.9074477,14.4205623 C7.1333703,10.2105324 4.70470243,10.6460527 5.43895086,7.88775723 C6.95986175,2.17411753 12.3295899,3.62933615 12.3295899,3.62933615 C13.2897609,8.56523331 17.1869257,7.16189 17.1869257,7.16189 C20.6887258,11.4203111 14.8712191,13.5495216 14.8712191,13.5495216 C14.8147384,10.9847907 12.1036673,10.3557058 10.2398059,12.3881341 C9.22496166,13.4949364 9.54306067,16.3399488 11.8777447,16.8885109 C19.4050337,18.656917 21.9877807,12.4849163 21.3664936,8.22649527 C20.2969761,0.896978331 9.9574027,0.33873804 5.89079604,2.95186007 C1.82418938,5.56498209 -1.28224626,9.33949169 0.63809577,15.8239056 C2.25253861,21.275846 10.0540976,22.6908032 12.4981282,23.0032164 C10.0540976,23.3160168 2.25253861,24.730974 0.63809577,30.1829144 C-1.28224626,36.6673283 1.82418938,40.4418379 5.89079604,43.0549599 C9.9574027,45.6680819 20.2969761,45.1098416 21.3664936,37.7803247 C21.9877807,33.5219036 19.4050337,27.349903 11.8777447,29.1183091 C9.54306067,29.666484 9.22496166,32.5118836 10.2398059,33.6186859 C12.1036673,35.6511142 14.8147384,35.0220292 14.8712191,32.4572983 C14.8712191,32.4572983 20.6887258,34.5865089 17.1869257,38.84493 C17.1869257,38.84493 13.2897609,37.4415867 12.3295899,42.3774838 C12.3295899,42.3774838 6.95986175,43.8327024 5.43895086,38.1190627 C4.70470243,35.3607673 7.1333703,35.7962876 6.9074477,31.5862577 C6.75156112,28.6820145 5.55191215,29.2150914 4.42229919,29.1183091 C4.42229919,29.1183091 15.9931507,20.6355343 24.190526,28.6343976 C30.290436,34.5865089 26.5853055,35.8342263 34.3570427,40.9257494 C42.9985818,46.5875137 58.3613181,42.5226573 63.2186538,39.7159706 C63.2186538,39.7159706 65.1602326,47.1182679 75.0231093,44.6421896 Z"
                                id="Stroke-8" stroke="#F3EFE0" fill="#035B73" stroke-linecap="round"></path>
                            <path
                                d="M93.0415656,39.758671 C87.9208041,37.4207978 89.1254234,31.1659515 89.1254234,31.1659515 C89.1254234,31.1659515 81.1770148,33.0357855 78.3963595,29.5763991 C74.0283721,24.1426538 67.9067735,22.6955649 67.9067735,22.6955649 C67.9067735,22.6955649 74.0283721,21.6085061 78.3963595,16.0597834 C81.1770148,12.5272296 89.1254234,14.4369379 89.1254234,14.4369379 C89.1254234,14.4369379 87.9208041,8.04930624 93.0415656,5.66188053 C98.1487717,3.28064889 102.756237,3.46801941 108.630224,9.53317242 C108.630224,9.53317242 104.413153,20.1792251 120.001812,22.8891294 C104.413153,25.5425129 108.630224,35.9675148 108.630224,35.9675148 C102.756237,41.9068509 98.1487717,42.089963 93.0415656,39.758671"
                                id="Fill-10" fill="#035B73"></path>
                            <path
                                d="M93.0415656,39.758671 C87.9208041,37.4207978 89.1254234,31.1659515 89.1254234,31.1659515 C89.1254234,31.1659515 81.1770148,33.0357855 78.3963595,29.5763991 C74.0283721,24.1426538 67.9067735,22.6955649 67.9067735,22.6955649 C67.9067735,22.6955649 74.0283721,21.6085061 78.3963595,16.0597834 C81.1770148,12.5272296 89.1254234,14.4369379 89.1254234,14.4369379 C89.1254234,14.4369379 87.9208041,8.04930624 93.0415656,5.66188053 C98.1487717,3.28064889 102.756237,3.46801941 108.630224,9.53317242 C108.630224,9.53317242 104.413153,20.1792251 120.001812,22.8891294 C104.413153,25.5425129 108.630224,35.9675148 108.630224,35.9675148 C102.756237,41.9068509 98.1487717,42.089963 93.0415656,39.758671 Z"
                                id="Stroke-12" stroke="#D3C7A4" stroke-linecap="round"></path>
                            <path
                                d="M20.4628032,5.61910275 C20.4628032,5.61910275 25.734481,6.43594534 27.9937069,5.08099318 C30.2529329,3.72604102 35.4866556,0.370792337 38.9129977,2.24217484 C40.890724,3.32226528 40.3064882,5.85525156 38.4611525,6.72629223 C35.4821372,8.13273258 35.1477717,3.79069159 35.1477717,3.79069159 C35.1477717,3.79069159 32.7950139,3.38730298 30.8552425,5.4034718 C28.5585134,7.7908975 25.2532659,9.69441173 21.4329149,8.71574914 C21.4329149,8.71574914 20.9770031,6.36935912 20.4628032,5.61910275"
                                id="Fill-14" fill="#FFFFFE"></path>
                            <path
                                d="M18.9775961,5.61910275 C18.9775961,5.61910275 24.2492739,6.43594534 26.5084998,5.08099318 C28.7677258,3.72604102 34.0014485,0.370792337 37.4277906,2.24217484 C39.4055169,3.32226528 38.8212811,5.85525156 36.9759454,6.72629223 C33.9969301,8.13273258 33.6625646,3.79069159 33.6625646,3.79069159 C33.6625646,3.79069159 31.3098068,3.38730298 29.3700354,5.4034718 C27.0733063,7.7908975 23.7680588,9.69441173 19.9477078,8.71574914 C19.9477078,8.71574914 19.491796,6.36935912 18.9775961,5.61910275 Z"
                                id="Stroke-16" stroke="#035B73" stroke-linecap="round"></path>
                            <path
                                d="M20.4628032,40.2758756 C20.4628032,40.2758756 25.734481,39.459033 27.9937069,40.8139852 C30.2529329,42.1689373 35.4866556,45.5237989 38.9129977,43.6528035 C40.890724,42.5727131 40.3064882,40.0397268 38.4611525,39.1686861 C35.4821372,37.7618586 35.1477717,42.1042867 35.1477717,42.1042867 C35.1477717,42.1042867 32.7950139,42.5076754 30.8552425,40.4911194 C28.5585134,38.1040808 25.2532659,36.2005666 21.4329149,37.1788421 C21.4329149,37.1788421 20.9770031,39.5252321 20.4628032,40.2758756"
                                id="Fill-18" fill="#FFFFFE"></path>
                            <path
                                d="M18.9775961,40.2758756 C18.9775961,40.2758756 24.2492739,39.459033 26.5084998,40.8139852 C28.7677258,42.1689373 34.0014485,45.5237989 37.4277906,43.6528035 C39.4055169,42.5727131 38.8212811,40.0397268 36.9759454,39.1686861 C33.9969301,37.7618586 33.6625646,42.1042867 33.6625646,42.1042867 C33.6625646,42.1042867 31.3098068,42.5076754 29.3700354,40.4911194 C27.0733063,38.1040808 23.7680588,36.2005666 19.9477078,37.1788421 C19.9477078,37.1788421 19.491796,39.5252321 18.9775961,40.2758756 Z"
                                id="Stroke-20" stroke="#035B73" stroke-linecap="round"></path>
                            <path
                                d="M90.6117681,23.0826166 C90.6117681,23.0826166 89.8964972,17.1467648 94.4899554,15.5335974 C99.0838653,13.9204301 101.117169,12.5012145 98.4815557,10.3720039 C98.4815557,10.3720039 100.815788,8.50062145 102.548162,11.0816118 C104.280085,13.6626021 103.22593,16.6303344 100.288936,17.2110282 C100.288936,17.2110282 104.807388,16.4367698 106.614769,19.4048893 C108.42215,22.3730088 108.42215,22.5019228 110.83184,23.0826166"
                                id="Fill-22" fill="#FFFFFE"></path>
                            <path
                                d="M90.6117681,23.0826166 C90.6117681,23.0826166 89.8964972,17.1467648 94.4899554,15.5335974 C99.0838653,13.9204301 101.117169,12.5012145 98.4815557,10.3720039 C98.4815557,10.3720039 100.815788,8.50062145 102.548162,11.0816118 C104.280085,13.6626021 103.22593,16.6303344 100.288936,17.2110282 C100.288936,17.2110282 104.807388,16.4367698 106.614769,19.4048893 C108.42215,22.3730088 108.42215,22.5019228 110.83184,23.0826166"
                                id="Stroke-24" stroke="#D3C7A4" stroke-linecap="round"></path>
                            <path
                                d="M90.6117681,23.0826166 C90.6117681,23.0826166 89.8964972,29.0184685 94.4899554,30.6316358 C99.0838653,32.2448031 101.117169,33.6640187 98.4815557,35.7932293 C98.4815557,35.7932293 100.815788,37.6646118 102.548162,35.0836215 C104.280085,32.5026312 103.22593,29.5348988 100.288936,28.954205 C100.288936,28.954205 104.807388,29.7284634 106.614769,26.7603439 C108.42215,23.7922244 108.42215,23.6633104 110.83184,23.0826166"
                                id="Fill-26" fill="#FFFFFE"></path>
                            <path
                                d="M90.6117681,23.0826166 C90.6117681,23.0826166 89.8964972,29.0184685 94.4899554,30.6316358 C99.0838653,32.2448031 101.117169,33.6640187 98.4815557,35.7932293 C98.4815557,35.7932293 100.815788,37.6646118 102.548162,35.0836215 C104.280085,32.5026312 103.22593,29.5348988 100.288936,28.954205 C100.288936,28.954205 104.807388,29.7284634 106.614769,26.7603439 C108.42215,23.7922244 108.42215,23.6633104 110.83184,23.0826166"
                                id="Stroke-28" stroke="#D3C7A4" stroke-linecap="round"></path>
                            <path
                                d="M98.0672137,29.9541597 C98.0672137,29.9541597 98.4625782,29.5186394 98.0672137,28.6959899 C97.0270661,26.5311634 96.3163136,27.6313846 94.2830103,26.9539085 C92.2497069,26.2764324 93.0119698,23.0826166 93.0119698,23.0826166 C93.0119698,23.0826166 92.2497069,19.8888008 94.2830103,19.2113247 C96.3163136,18.5338486 97.0270661,19.6336827 98.0672137,17.4692434 C98.4625782,16.6465938 98.0672137,16.2110735 98.0672137,16.2110735 C98.0672137,16.2110735 99.8181138,15.8781424 99.0273847,18.996468 C99.0273847,18.996468 101.118976,19.1188008 102.60148,20.8399772 C103.512852,21.8976142 104.053711,22.7876242 105.635621,23.0826166 C104.053711,23.3772219 103.512852,24.2672319 102.60148,25.325256 C101.118976,27.0464324 99.0273847,27.1687652 99.0273847,27.1687652 C99.8181138,30.2867037 98.0672137,29.9541597 98.0672137,29.9541597"
                                id="Fill-30" fill="#035B73"></path>
                            <path
                                d="M98.0672137,29.9541597 C98.0672137,29.9541597 98.4625782,29.5186394 98.0672137,28.6959899 C97.0270661,26.5311634 96.3163136,27.6313846 94.2830103,26.9539085 C92.2497069,26.2764324 93.0119698,23.0826166 93.0119698,23.0826166 C93.0119698,23.0826166 92.2497069,19.8888008 94.2830103,19.2113247 C96.3163136,18.5338486 97.0270661,19.6336827 98.0672137,17.4692434 C98.4625782,16.6465938 98.0672137,16.2110735 98.0672137,16.2110735 C98.0672137,16.2110735 99.8181138,15.8781424 99.0273847,18.996468 C99.0273847,18.996468 101.118976,19.1188008 102.60148,20.8399772 C103.512852,21.8976142 104.053711,22.7876242 105.635621,23.0826166 C104.053711,23.3772219 103.512852,24.2672319 102.60148,25.325256 C101.118976,27.0464324 99.0273847,27.1687652 99.0273847,27.1687652 C99.8181138,30.2867037 98.0672137,29.9541597 98.0672137,29.9541597 Z"
                                id="Stroke-32" stroke="#D3C7A4" stroke-linecap="round"></path>
                            <path
                                d="M93.8124135,43.0719549 C85.8296646,40.4913517 85.3778194,34.2972847 85.3778194,34.2972847 C82.8176646,35.2004571 77.4520031,34.3294164 75.1362965,30.2966916 C73.6420445,27.6947963 69.4127735,26.704907 69.4127735,26.704907 C65.3461669,30.7910556 63.3883217,25.7804425 63.3883217,25.7804425 C62.4846313,27.0707441 60.2254054,26.1675717 58.8698698,24.6190549 C57.8170706,23.4170188 56.949076,22.8773607 56.6119995,22.69541 L56.4597276,22.69541 C56.4597276,22.69541 56.4890976,22.6826347 56.5392524,22.6570842 C56.4890976,22.6315337 56.4597276,22.6187584 56.4597276,22.6187584 L56.6119995,22.6187584 C56.949076,22.4368077 57.8170706,21.8975367 58.8698698,20.6951135 C60.2254054,19.1465967 62.4846313,18.2434243 63.3883217,19.5337259 C63.3883217,19.5337259 65.3461669,14.5231128 69.4127735,18.6096485 C69.4127735,18.6096485 73.6420445,17.6193721 75.1362965,15.0174768 C77.4520031,10.984752 82.8176646,10.1137114 85.3778194,11.0168838 C85.3778194,11.0168838 85.8296646,4.82281673 93.8124135,2.24221355 C101.795162,-0.338776753 109.17515,3.14538595 110.380221,5.20994591 C111.58484,7.27489301 109.17515,11.5828666 109.17515,11.5828666 C109.17515,11.5828666 103.482352,2.09045891 95.4128491,4.64551156 C90.2166295,6.29081061 88.3527681,9.38784412 88.861094,14.1301767 C88.861094,14.1301767 80.6149194,12.0110315 77.3955224,16.8238216 C74.6089932,20.9893317 69.1267555,22.4174512 68.0825413,22.6570842 C69.1267555,22.8967172 74.6089932,24.3248368 77.3955224,28.4903468 C80.6149194,33.3031369 88.861094,31.1839917 88.861094,31.1839917 C88.3527681,35.9263243 90.2166295,39.0233578 95.4128491,40.6686569 C103.482352,43.2240966 109.17515,33.7313018 109.17515,33.7313018 C109.17515,33.7313018 111.58484,38.0392754 110.380221,40.1042225 C109.17515,42.1687825 101.795162,45.6529452 93.8124135,43.0719549"
                                id="Fill-34" fill="#FFFFFE"></path>
                            <path
                                d="M93.8124135,43.0719549 C85.8296646,40.4913517 85.3778194,34.2972847 85.3778194,34.2972847 C82.8176646,35.2004571 77.4520031,34.3294164 75.1362965,30.2966916 C73.6420445,27.6947963 69.4127735,26.704907 69.4127735,26.704907 C65.3461669,30.7910556 63.3883217,25.7804425 63.3883217,25.7804425 C62.4846313,27.0707441 60.2254054,26.1675717 58.8698698,24.6190549 C57.8170706,23.4170188 56.949076,22.8773607 56.6119995,22.69541 L56.4597276,22.69541 C56.4597276,22.69541 56.4890976,22.6826347 56.5392524,22.6570842 C56.4890976,22.6315337 56.4597276,22.6187584 56.4597276,22.6187584 L56.6119995,22.6187584 C56.949076,22.4368077 57.8170706,21.8975367 58.8698698,20.6951135 C60.2254054,19.1465967 62.4846313,18.2434243 63.3883217,19.5337259 C63.3883217,19.5337259 65.3461669,14.5231128 69.4127735,18.6096485 C69.4127735,18.6096485 73.6420445,17.6193721 75.1362965,15.0174768 C77.4520031,10.984752 82.8176646,10.1137114 85.3778194,11.0168838 C85.3778194,11.0168838 85.8296646,4.82281673 93.8124135,2.24221355 C101.795162,-0.338776753 109.17515,3.14538595 110.380221,5.20994591 C111.58484,7.27489301 109.17515,11.5828666 109.17515,11.5828666 C109.17515,11.5828666 103.482352,2.09045891 95.4128491,4.64551156 C90.2166295,6.29081061 88.3527681,9.38784412 88.861094,14.1301767 C88.861094,14.1301767 80.6149194,12.0110315 77.3955224,16.8238216 C74.6089932,20.9893317 69.1267555,22.4174512 68.0825413,22.6570842 C69.1267555,22.8967172 74.6089932,24.3248368 77.3955224,28.4903468 C80.6149194,33.3031369 88.861094,31.1839917 88.861094,31.1839917 C88.3527681,35.9263243 90.2166295,39.0233578 95.4128491,40.6686569 C103.482352,43.2240966 109.17515,33.7313018 109.17515,33.7313018 C109.17515,33.7313018 111.58484,38.0392754 110.380221,40.1042225 C109.17515,42.1687825 101.795162,45.6529452 93.8124135,43.0719549 Z"
                                id="Stroke-36" stroke="#D3C7A4" stroke-linecap="round"></path>
                            <path
                                d="M126.345267,10.0491382 C126.345267,10.0491382 130.110493,6.37141091 135.08079,6.62962608 C140.051087,6.88784125 143.214003,8.41042035 144.042687,6.61685081 C144.042687,6.61685081 140.492991,4.53680568 144.042687,3.01616223 C145.745692,2.28681083 146.822891,2.87718285 147.437852,3.52833414 C147.91003,4.02889218 148.221351,5.25493033 147.988651,6.08261253 C147.754143,6.91494029 147.171263,7.88624742 145.77461,8.436358 C142.98808,9.53309499 139.373319,8.50062145 139.373319,8.50062145 C139.373319,8.50062145 135.38217,7.46853503 133.348867,9.79131016 C130.961769,12.517861 127.851267,13.0435825 127.324415,13.0819083 C126.797112,13.1198469 126.345267,10.0491382 126.345267,10.0491382"
                                id="Fill-38" fill="#9E8D66"></path>
                            <path
                                d="M126.345267,10.0491382 C126.345267,10.0491382 130.110493,6.37141091 135.08079,6.62962608 C140.051087,6.88784125 143.214003,8.41042035 144.042687,6.61685081 C144.042687,6.61685081 140.492991,4.53680568 144.042687,3.01616223 C145.745692,2.28681083 146.822891,2.87718285 147.437852,3.52833414 C147.91003,4.02889218 148.221351,5.25493033 147.988651,6.08261253 C147.754143,6.91494029 147.171263,7.88624742 145.77461,8.436358 C142.98808,9.53309499 139.373319,8.50062145 139.373319,8.50062145 C139.373319,8.50062145 135.38217,7.46853503 133.348867,9.79131016 C130.961769,12.517861 127.851267,13.0435825 127.324415,13.0819083 C126.797112,13.1198469 126.345267,10.0491382 126.345267,10.0491382 Z"
                                id="Stroke-40" stroke="#FAF9F3" stroke-width="0.5" fill="#035B73"
                                stroke-linecap="round"></path>
                            <path
                                d="M106.961379,21.007488 C106.961379,21.007488 119.567408,19.2758592 120.697021,16.3723902 C120.697021,16.3723902 118.814182,13.7913999 121.525253,11.5975388 C124.236325,9.40406484 123.709473,8.6940699 122.504402,7.33911774 C122.504402,7.33911774 130.110312,8.6940699 126.646467,14.7592229 C123.18217,20.8243759 109.928195,22.6953713 109.928195,22.6953713 C109.928195,22.6953713 107.834344,22.376764 106.961379,21.007488"
                                id="Fill-42" fill="#9E8D66"></path>
                            <path
                                d="M106.961379,21.007488 C106.961379,21.007488 119.567408,19.2758592 120.697021,16.3723902 C120.697021,16.3723902 118.814182,13.7913999 121.525253,11.5975388 C124.236325,9.40406484 123.709473,8.6940699 122.504402,7.33911774 C122.504402,7.33911774 130.110312,8.6940699 126.646467,14.7592229 C123.18217,20.8243759 109.928195,22.6953713 109.928195,22.6953713 C109.928195,22.6953713 107.834344,22.376764 106.961379,21.007488 Z"
                                id="Stroke-44" stroke="#FAF9F3" stroke-width="0.5" fill="#035B73"
                                stroke-linecap="round"></path>
                            <path
                                d="M119.696455,22.6731888 C115.789802,22.6731888 108.750958,21.5389003 107.997732,13.7963165 C107.244958,6.05411982 111.881793,4.29732756 114.258498,3.46809684 C118.230669,2.08217434 127.154612,2.419751 128.98097,4.04879062 C128.98097,4.04879062 130.894986,0.769806393 133.423964,2.67990181 C135.513748,4.25861464 131.221219,7.88098247 128.848128,5.95385336 C127.968837,5.24037427 125.064828,4.25861464 123.878734,4.1134412 C121.865764,3.86683991 117.02605,3.85522603 115.971444,7.33938873 C115.971444,7.33938873 116.922126,11.4251502 115.237195,13.0820631 C114.220543,14.0820178 112.112234,13.6627569 111.886311,11.6624604 C111.886311,11.6624604 110.51225,14.5876085 113.373334,17.8565274 C115.237195,19.985738 119.525206,21.8246016 122.410237,20.663214"
                                id="Fill-46" fill="#9E8D66"></path>
                            <path
                                d="M119.696455,22.6731888 C115.789802,22.6731888 108.750958,21.5389003 107.997732,13.7963165 C107.244958,6.05411982 111.881793,4.29732756 114.258498,3.46809684 C118.230669,2.08217434 127.154612,2.419751 128.98097,4.04879062 C128.98097,4.04879062 130.894986,0.769806393 133.423964,2.67990181 C135.513748,4.25861464 131.221219,7.88098247 128.848128,5.95385336 C127.968837,5.24037427 125.064828,4.25861464 123.878734,4.1134412 C121.865764,3.86683991 117.02605,3.85522603 115.971444,7.33938873 C115.971444,7.33938873 116.922126,11.4251502 115.237195,13.0820631 C114.220543,14.0820178 112.112234,13.6627569 111.886311,11.6624604 C111.886311,11.6624604 110.51225,14.5876085 113.373334,17.8565274 C115.237195,19.985738 119.525206,21.8246016 122.410237,20.663214"
                                id="Stroke-48" stroke="#FAF9F3" stroke-width="0.5" fill="#035B73"
                                stroke-linecap="round"></path>
                            <path
                                d="M126.345267,35.6333449 C126.345267,35.6333449 130.110493,39.3110722 135.08079,39.0532442 C140.051087,38.795029 143.214003,37.2724499 144.042687,39.0660194 C144.042687,39.0660194 140.492991,41.1456774 144.042687,42.6663209 C145.745692,43.3960594 146.822891,42.8053003 147.437852,42.1545361 C147.91003,41.6539781 148.221351,40.4279399 147.988651,39.5998706 C147.754143,38.76793 147.171263,37.7962357 145.77461,37.2465123 C142.98808,36.1497753 139.373319,37.1818617 139.373319,37.1818617 C139.373319,37.1818617 135.38217,38.2143352 133.348867,35.8915601 C130.961769,33.1646221 127.851267,32.6392878 127.324415,32.600962 C126.797112,32.5626362 126.345267,35.6333449 126.345267,35.6333449"
                                id="Fill-50" fill="#FFFFFE"></path>
                            <path
                                d="M126.345267,35.6333449 C126.345267,35.6333449 130.110493,39.3110722 135.08079,39.0532442 C140.051087,38.795029 143.214003,37.2724499 144.042687,39.0660194 C144.042687,39.0660194 140.492991,41.1456774 144.042687,42.6663209 C145.745692,43.3960594 146.822891,42.8053003 147.437852,42.1545361 C147.91003,41.6539781 148.221351,40.4279399 147.988651,39.5998706 C147.754143,38.76793 147.171263,37.7962357 145.77461,37.2465123 C142.98808,36.1497753 139.373319,37.1818617 139.373319,37.1818617 C139.373319,37.1818617 135.38217,38.2143352 133.348867,35.8915601 C130.961769,33.1646221 127.851267,32.6392878 127.324415,32.600962 C126.797112,32.5626362 126.345267,35.6333449 126.345267,35.6333449 Z"
                                id="Stroke-52" stroke="#FAF9F3" stroke-width="0.5" fill="#035B73"
                                stroke-linecap="round"></path>
                            <path
                                d="M106.961379,24.6749951 C106.961379,24.6749951 119.567408,26.4070111 120.697021,29.31048 C120.697021,29.31048 118.814182,31.8914703 121.525253,34.0849443 C124.236325,36.2788054 123.709473,36.9884132 122.504402,38.3433654 C122.504402,38.3433654 130.110312,36.9884132 126.646467,30.9236473 C123.18217,24.8584943 109.928195,22.987499 109.928195,22.987499 C109.928195,22.987499 107.834344,23.3057192 106.961379,24.6749951"
                                id="Fill-54" fill="#FFFFFE"></path>
                            <path
                                d="M106.961379,24.6749951 C106.961379,24.6749951 119.567408,26.4070111 120.697021,29.31048 C120.697021,29.31048 118.814182,31.8914703 121.525253,34.0849443 C124.236325,36.2788054 123.709473,36.9884132 122.504402,38.3433654 C122.504402,38.3433654 130.110312,36.9884132 126.646467,30.9236473 C123.18217,24.8584943 109.928195,22.987499 109.928195,22.987499 C109.928195,22.987499 107.834344,23.3057192 106.961379,24.6749951 Z"
                                id="Stroke-56" stroke="#FAF9F3" stroke-width="0.5" fill="#035B73"
                                stroke-linecap="round"></path>
                            <path
                                d="M119.696455,23.0092943 C115.789802,23.0092943 108.750958,24.1435829 107.997732,31.8861667 C107.244958,39.6287504 111.881793,41.3855427 114.258498,42.2143863 C118.230669,43.6003088 127.154612,43.2631193 128.98097,41.6336925 C128.98097,41.6336925 130.894986,44.9130639 133.423964,43.0029684 C135.513748,41.4242556 131.221219,37.8015007 128.848128,39.7286298 C127.968837,40.442496 125.064828,41.4242556 123.878734,41.5694291 C121.865764,41.8156432 117.02605,41.8272571 115.971444,38.3430944 C115.971444,38.3430944 116.922126,34.2573329 115.237195,32.60042 C114.220543,31.6008524 112.112234,32.0201134 111.886311,34.0204099 C111.886311,34.0204099 110.51225,31.0952617 113.373334,27.8263428 C115.237195,25.6971323 119.525206,23.8582687 122.410237,25.0196562"
                                id="Fill-58" fill="#FFFFFE"></path>
                            <path
                                d="M119.696455,23.0092943 C115.789802,23.0092943 108.750958,24.1435829 107.997732,31.8861667 C107.244958,39.6287504 111.881793,41.3855427 114.258498,42.2143863 C118.230669,43.6003088 127.154612,43.2631193 128.98097,41.6336925 C128.98097,41.6336925 130.894986,44.9130639 133.423964,43.0029684 C135.513748,41.4242556 131.221219,37.8015007 128.848128,39.7286298 C127.968837,40.442496 125.064828,41.4242556 123.878734,41.5694291 C121.865764,41.8156432 117.02605,41.8272571 115.971444,38.3430944 C115.971444,38.3430944 116.922126,34.2573329 115.237195,32.60042 C114.220543,31.6008524 112.112234,32.0201134 111.886311,34.0204099 C111.886311,34.0204099 110.51225,31.0952617 113.373334,27.8263428 C115.237195,25.6971323 119.525206,23.8582687 122.410237,25.0196562"
                                id="Stroke-60" stroke="#FAF9F3" stroke-width="0.5" fill="#035B73"
                                stroke-linecap="round"></path>
                            <path
                                d="M20.0109581,22.6954874 C20.0109581,22.6954874 29.3867456,20.5662769 31.3070877,17.2756788 C31.3070877,17.2756788 34.470004,22.6954874 37.4069977,22.6954874 C34.470004,22.6954874 31.3070877,28.1152961 31.3070877,28.1152961 C29.3867456,24.824698 20.0109581,22.6954874 20.0109581,22.6954874"
                                id="Fill-62" fill="#035B73"></path>
                            <path
                                d="M20.0109581,22.6954874 C20.0109581,22.6954874 29.3867456,20.5662769 31.3070877,17.2756788 C31.3070877,17.2756788 34.470004,22.6954874 37.4069977,22.6954874 C34.470004,22.6954874 31.3070877,28.1152961 31.3070877,28.1152961 C29.3867456,24.824698 20.0109581,22.6954874 20.0109581,22.6954874 Z"
                                id="Stroke-64" stroke="#FFFFFF" stroke-linecap="round"></path>
                        </g>
                        <g id="Group-Copy-2" stroke-width="1" fill-rule="evenodd"
                            transform="translate(421.798817, 26.000000) rotate(-180.000000) translate(-421.798817, -26.000000) translate(347.538462, 2.888889)">
                            <path
                                d="M47.6864756,42.0387458 C44.5380184,42.3612244 33.3968716,41.5064431 31.3070877,35.602723 C31.3070877,35.602723 38.9301678,39.0760461 36.6162686,32.021778 C34.1876007,24.6179323 42.490256,24.1340208 47.2911111,27.7149658 C47.2911111,27.7149658 41.6430463,26.795534 45.032337,32.8986256 C47.6674981,37.6436681 41.4736043,37.538369 41.4736043,36.8608929 C41.4736043,36.8608929 43.0189149,33.3767302 40.0615881,33.3767302 C36.6727492,33.3767302 37.8095917,36.8291483 40.1180688,38.3126273 C42.3772947,39.7643618 49.0984918,39.2320592 50.7508896,36.3018783 C52.7073793,32.8328137 50.9623532,31.6346488 50.9623532,31.6346488 C50.9623532,31.6346488 53.922391,30.7318635 53.6169437,29.5054383 C53.1931129,27.802457 52.0463298,28.3858607 51.1882758,28.3440507 C51.1882758,28.3440507 48.814733,25.1796567 45.4340274,23.0032164 C48.814733,20.8271632 51.1882758,17.6627693 51.1882758,17.6627693 C52.0463298,17.6209593 53.1931129,18.204363 53.6169437,16.5013817 C53.922391,15.2749564 50.9623532,14.3721711 50.9623532,14.3721711 C50.9623532,14.3721711 52.7073793,13.1740063 50.7508896,9.70494164 C49.0984918,6.77476081 42.3772947,6.24245817 40.1180688,7.69419263 C37.8095917,9.17728456 36.6727492,12.6300898 40.0615881,12.6300898 C43.0189149,12.6300898 41.4736043,9.14592709 41.4736043,9.14592709 C41.4736043,8.46845101 47.6674981,8.36276474 45.032337,13.1081943 C41.6430463,19.211286 47.2911111,18.2918542 47.2911111,18.2918542 C42.490256,21.8727992 34.1876007,21.3888877 36.6162686,13.985042 C38.9301678,6.93077387 31.3070877,10.404097 31.3070877,10.404097 C33.3968716,4.50037682 44.5380184,3.64559557 47.6864756,3.96807419 C52.8826952,4.50037682 63.0180346,10.3386721 66.2121282,15.5335587 C69.1771363,20.356027 85.8253721,22.573503 89.4591111,23.0032164 C85.8253721,23.4333169 69.1771363,25.6507929 66.2121282,30.4732612 C63.0180346,35.6677607 52.8826952,41.5064431 47.6864756,42.0387458 Z M75.0231093,44.6421896 C82.3091129,42.8130042 83.2616025,36.8926375 78.9767546,35.602723 C72.7074027,33.7154682 75.3055125,40.3934467 77.6776997,39.0384946 C77.6776997,39.0384946 76.9836655,44.7501986 69.2620832,41.9419635 C64.2380166,40.1147137 68.2454315,37.0544575 68.6972767,36.1834168 C69.1491219,35.3123761 69.8268896,32.9044326 67.3417411,32.8986256 C67.3417411,32.8986256 73.7705944,26.1490282 90.1915521,25.021708 L90.1608266,23.0032164 L90.1915521,20.985112 C73.7705944,19.8574046 67.3417411,13.1081943 67.3417411,13.1081943 C69.8268896,13.1023874 69.1491219,10.6944438 68.6972767,9.82340317 C68.2454315,8.9523625 64.2380166,5.89171913 69.2620832,4.06485649 C76.9836655,1.25662135 77.6776997,6.9683254 77.6776997,6.9683254 C75.3055125,5.61337324 72.7074027,12.2913518 78.9767546,10.404097 C83.2616025,9.1141825 82.3091129,3.19381581 75.0231093,1.36463039 C65.1602326,-1.1114479 63.2186538,6.29084932 63.2186538,6.29084932 C58.3613181,3.4841627 42.9985818,-0.580693784 34.3570427,5.08107061 C26.5853055,10.1729808 30.290436,11.4203111 24.190526,17.3724224 C15.9931507,25.3712857 4.42229919,16.8885109 4.42229919,16.8885109 C5.55191215,16.7917286 6.75156112,17.3244183 6.9074477,14.4205623 C7.1333703,10.2105324 4.70470243,10.6460527 5.43895086,7.88775723 C6.95986175,2.17411753 12.3295899,3.62933615 12.3295899,3.62933615 C13.2897609,8.56523331 17.1869257,7.16189 17.1869257,7.16189 C20.6887258,11.4203111 14.8712191,13.5495216 14.8712191,13.5495216 C14.8147384,10.9847907 12.1036673,10.3557058 10.2398059,12.3881341 C9.22496166,13.4949364 9.54306067,16.3399488 11.8777447,16.8885109 C19.4050337,18.656917 21.9877807,12.4849163 21.3664936,8.22649527 C20.2969761,0.896978331 9.9574027,0.33873804 5.89079604,2.95186007 C1.82418938,5.56498209 -1.28224626,9.33949169 0.63809577,15.8239056 C2.25253861,21.275846 10.0540976,22.6908032 12.4981282,23.0032164 C10.0540976,23.3160168 2.25253861,24.730974 0.63809577,30.1829144 C-1.28224626,36.6673283 1.82418938,40.4418379 5.89079604,43.0549599 C9.9574027,45.6680819 20.2969761,45.1098416 21.3664936,37.7803247 C21.9877807,33.5219036 19.4050337,27.349903 11.8777447,29.1183091 C9.54306067,29.666484 9.22496166,32.5118836 10.2398059,33.6186859 C12.1036673,35.6511142 14.8147384,35.0220292 14.8712191,32.4572983 C14.8712191,32.4572983 20.6887258,34.5865089 17.1869257,38.84493 C17.1869257,38.84493 13.2897609,37.4415867 12.3295899,42.3774838 C12.3295899,42.3774838 6.95986175,43.8327024 5.43895086,38.1190627 C4.70470243,35.3607673 7.1333703,35.7962876 6.9074477,31.5862577 C6.75156112,28.6820145 5.55191215,29.2150914 4.42229919,29.1183091 C4.42229919,29.1183091 15.9931507,20.6355343 24.190526,28.6343976 C30.290436,34.5865089 26.5853055,35.8342263 34.3570427,40.9257494 C42.9985818,46.5875137 58.3613181,42.5226573 63.2186538,39.7159706 C63.2186538,39.7159706 65.1602326,47.1182679 75.0231093,44.6421896 Z"
                                id="Stroke-8" stroke="#F3EFE0" fill="#035B73" stroke-linecap="round"></path>
                            <path
                                d="M93.0415656,39.758671 C87.9208041,37.4207978 89.1254234,31.1659515 89.1254234,31.1659515 C89.1254234,31.1659515 81.1770148,33.0357855 78.3963595,29.5763991 C74.0283721,24.1426538 67.9067735,22.6955649 67.9067735,22.6955649 C67.9067735,22.6955649 74.0283721,21.6085061 78.3963595,16.0597834 C81.1770148,12.5272296 89.1254234,14.4369379 89.1254234,14.4369379 C89.1254234,14.4369379 87.9208041,8.04930624 93.0415656,5.66188053 C98.1487717,3.28064889 102.756237,3.46801941 108.630224,9.53317242 C108.630224,9.53317242 104.413153,20.1792251 120.001812,22.8891294 C104.413153,25.5425129 108.630224,35.9675148 108.630224,35.9675148 C102.756237,41.9068509 98.1487717,42.089963 93.0415656,39.758671"
                                id="Fill-10" fill="#035B73"></path>
                            <path
                                d="M93.0415656,39.758671 C87.9208041,37.4207978 89.1254234,31.1659515 89.1254234,31.1659515 C89.1254234,31.1659515 81.1770148,33.0357855 78.3963595,29.5763991 C74.0283721,24.1426538 67.9067735,22.6955649 67.9067735,22.6955649 C67.9067735,22.6955649 74.0283721,21.6085061 78.3963595,16.0597834 C81.1770148,12.5272296 89.1254234,14.4369379 89.1254234,14.4369379 C89.1254234,14.4369379 87.9208041,8.04930624 93.0415656,5.66188053 C98.1487717,3.28064889 102.756237,3.46801941 108.630224,9.53317242 C108.630224,9.53317242 104.413153,20.1792251 120.001812,22.8891294 C104.413153,25.5425129 108.630224,35.9675148 108.630224,35.9675148 C102.756237,41.9068509 98.1487717,42.089963 93.0415656,39.758671 Z"
                                id="Stroke-12" stroke="#D3C7A4" stroke-linecap="round"></path>
                            <path
                                d="M20.4628032,5.61910275 C20.4628032,5.61910275 25.734481,6.43594534 27.9937069,5.08099318 C30.2529329,3.72604102 35.4866556,0.370792337 38.9129977,2.24217484 C40.890724,3.32226528 40.3064882,5.85525156 38.4611525,6.72629223 C35.4821372,8.13273258 35.1477717,3.79069159 35.1477717,3.79069159 C35.1477717,3.79069159 32.7950139,3.38730298 30.8552425,5.4034718 C28.5585134,7.7908975 25.2532659,9.69441173 21.4329149,8.71574914 C21.4329149,8.71574914 20.9770031,6.36935912 20.4628032,5.61910275"
                                id="Fill-14" fill="#FFFFFE"></path>
                            <path
                                d="M18.9775961,5.61910275 C18.9775961,5.61910275 24.2492739,6.43594534 26.5084998,5.08099318 C28.7677258,3.72604102 34.0014485,0.370792337 37.4277906,2.24217484 C39.4055169,3.32226528 38.8212811,5.85525156 36.9759454,6.72629223 C33.9969301,8.13273258 33.6625646,3.79069159 33.6625646,3.79069159 C33.6625646,3.79069159 31.3098068,3.38730298 29.3700354,5.4034718 C27.0733063,7.7908975 23.7680588,9.69441173 19.9477078,8.71574914 C19.9477078,8.71574914 19.491796,6.36935912 18.9775961,5.61910275 Z"
                                id="Stroke-16" stroke="#035B73" stroke-linecap="round"></path>
                            <path
                                d="M20.4628032,40.2758756 C20.4628032,40.2758756 25.734481,39.459033 27.9937069,40.8139852 C30.2529329,42.1689373 35.4866556,45.5237989 38.9129977,43.6528035 C40.890724,42.5727131 40.3064882,40.0397268 38.4611525,39.1686861 C35.4821372,37.7618586 35.1477717,42.1042867 35.1477717,42.1042867 C35.1477717,42.1042867 32.7950139,42.5076754 30.8552425,40.4911194 C28.5585134,38.1040808 25.2532659,36.2005666 21.4329149,37.1788421 C21.4329149,37.1788421 20.9770031,39.5252321 20.4628032,40.2758756"
                                id="Fill-18" fill="#FFFFFE"></path>
                            <path
                                d="M18.9775961,40.2758756 C18.9775961,40.2758756 24.2492739,39.459033 26.5084998,40.8139852 C28.7677258,42.1689373 34.0014485,45.5237989 37.4277906,43.6528035 C39.4055169,42.5727131 38.8212811,40.0397268 36.9759454,39.1686861 C33.9969301,37.7618586 33.6625646,42.1042867 33.6625646,42.1042867 C33.6625646,42.1042867 31.3098068,42.5076754 29.3700354,40.4911194 C27.0733063,38.1040808 23.7680588,36.2005666 19.9477078,37.1788421 C19.9477078,37.1788421 19.491796,39.5252321 18.9775961,40.2758756 Z"
                                id="Stroke-20" stroke="#035B73" stroke-linecap="round"></path>
                            <path
                                d="M90.6117681,23.0826166 C90.6117681,23.0826166 89.8964972,17.1467648 94.4899554,15.5335974 C99.0838653,13.9204301 101.117169,12.5012145 98.4815557,10.3720039 C98.4815557,10.3720039 100.815788,8.50062145 102.548162,11.0816118 C104.280085,13.6626021 103.22593,16.6303344 100.288936,17.2110282 C100.288936,17.2110282 104.807388,16.4367698 106.614769,19.4048893 C108.42215,22.3730088 108.42215,22.5019228 110.83184,23.0826166"
                                id="Fill-22" fill="#FFFFFE"></path>
                            <path
                                d="M90.6117681,23.0826166 C90.6117681,23.0826166 89.8964972,17.1467648 94.4899554,15.5335974 C99.0838653,13.9204301 101.117169,12.5012145 98.4815557,10.3720039 C98.4815557,10.3720039 100.815788,8.50062145 102.548162,11.0816118 C104.280085,13.6626021 103.22593,16.6303344 100.288936,17.2110282 C100.288936,17.2110282 104.807388,16.4367698 106.614769,19.4048893 C108.42215,22.3730088 108.42215,22.5019228 110.83184,23.0826166"
                                id="Stroke-24" stroke="#D3C7A4" stroke-linecap="round"></path>
                            <path
                                d="M90.6117681,23.0826166 C90.6117681,23.0826166 89.8964972,29.0184685 94.4899554,30.6316358 C99.0838653,32.2448031 101.117169,33.6640187 98.4815557,35.7932293 C98.4815557,35.7932293 100.815788,37.6646118 102.548162,35.0836215 C104.280085,32.5026312 103.22593,29.5348988 100.288936,28.954205 C100.288936,28.954205 104.807388,29.7284634 106.614769,26.7603439 C108.42215,23.7922244 108.42215,23.6633104 110.83184,23.0826166"
                                id="Fill-26" fill="#FFFFFE"></path>
                            <path
                                d="M90.6117681,23.0826166 C90.6117681,23.0826166 89.8964972,29.0184685 94.4899554,30.6316358 C99.0838653,32.2448031 101.117169,33.6640187 98.4815557,35.7932293 C98.4815557,35.7932293 100.815788,37.6646118 102.548162,35.0836215 C104.280085,32.5026312 103.22593,29.5348988 100.288936,28.954205 C100.288936,28.954205 104.807388,29.7284634 106.614769,26.7603439 C108.42215,23.7922244 108.42215,23.6633104 110.83184,23.0826166"
                                id="Stroke-28" stroke="#D3C7A4" stroke-linecap="round"></path>
                            <path
                                d="M98.0672137,29.9541597 C98.0672137,29.9541597 98.4625782,29.5186394 98.0672137,28.6959899 C97.0270661,26.5311634 96.3163136,27.6313846 94.2830103,26.9539085 C92.2497069,26.2764324 93.0119698,23.0826166 93.0119698,23.0826166 C93.0119698,23.0826166 92.2497069,19.8888008 94.2830103,19.2113247 C96.3163136,18.5338486 97.0270661,19.6336827 98.0672137,17.4692434 C98.4625782,16.6465938 98.0672137,16.2110735 98.0672137,16.2110735 C98.0672137,16.2110735 99.8181138,15.8781424 99.0273847,18.996468 C99.0273847,18.996468 101.118976,19.1188008 102.60148,20.8399772 C103.512852,21.8976142 104.053711,22.7876242 105.635621,23.0826166 C104.053711,23.3772219 103.512852,24.2672319 102.60148,25.325256 C101.118976,27.0464324 99.0273847,27.1687652 99.0273847,27.1687652 C99.8181138,30.2867037 98.0672137,29.9541597 98.0672137,29.9541597"
                                id="Fill-30" fill="#035B73"></path>
                            <path
                                d="M98.0672137,29.9541597 C98.0672137,29.9541597 98.4625782,29.5186394 98.0672137,28.6959899 C97.0270661,26.5311634 96.3163136,27.6313846 94.2830103,26.9539085 C92.2497069,26.2764324 93.0119698,23.0826166 93.0119698,23.0826166 C93.0119698,23.0826166 92.2497069,19.8888008 94.2830103,19.2113247 C96.3163136,18.5338486 97.0270661,19.6336827 98.0672137,17.4692434 C98.4625782,16.6465938 98.0672137,16.2110735 98.0672137,16.2110735 C98.0672137,16.2110735 99.8181138,15.8781424 99.0273847,18.996468 C99.0273847,18.996468 101.118976,19.1188008 102.60148,20.8399772 C103.512852,21.8976142 104.053711,22.7876242 105.635621,23.0826166 C104.053711,23.3772219 103.512852,24.2672319 102.60148,25.325256 C101.118976,27.0464324 99.0273847,27.1687652 99.0273847,27.1687652 C99.8181138,30.2867037 98.0672137,29.9541597 98.0672137,29.9541597 Z"
                                id="Stroke-32" stroke="#D3C7A4" stroke-linecap="round"></path>
                            <path
                                d="M93.8124135,43.0719549 C85.8296646,40.4913517 85.3778194,34.2972847 85.3778194,34.2972847 C82.8176646,35.2004571 77.4520031,34.3294164 75.1362965,30.2966916 C73.6420445,27.6947963 69.4127735,26.704907 69.4127735,26.704907 C65.3461669,30.7910556 63.3883217,25.7804425 63.3883217,25.7804425 C62.4846313,27.0707441 60.2254054,26.1675717 58.8698698,24.6190549 C57.8170706,23.4170188 56.949076,22.8773607 56.6119995,22.69541 L56.4597276,22.69541 C56.4597276,22.69541 56.4890976,22.6826347 56.5392524,22.6570842 C56.4890976,22.6315337 56.4597276,22.6187584 56.4597276,22.6187584 L56.6119995,22.6187584 C56.949076,22.4368077 57.8170706,21.8975367 58.8698698,20.6951135 C60.2254054,19.1465967 62.4846313,18.2434243 63.3883217,19.5337259 C63.3883217,19.5337259 65.3461669,14.5231128 69.4127735,18.6096485 C69.4127735,18.6096485 73.6420445,17.6193721 75.1362965,15.0174768 C77.4520031,10.984752 82.8176646,10.1137114 85.3778194,11.0168838 C85.3778194,11.0168838 85.8296646,4.82281673 93.8124135,2.24221355 C101.795162,-0.338776753 109.17515,3.14538595 110.380221,5.20994591 C111.58484,7.27489301 109.17515,11.5828666 109.17515,11.5828666 C109.17515,11.5828666 103.482352,2.09045891 95.4128491,4.64551156 C90.2166295,6.29081061 88.3527681,9.38784412 88.861094,14.1301767 C88.861094,14.1301767 80.6149194,12.0110315 77.3955224,16.8238216 C74.6089932,20.9893317 69.1267555,22.4174512 68.0825413,22.6570842 C69.1267555,22.8967172 74.6089932,24.3248368 77.3955224,28.4903468 C80.6149194,33.3031369 88.861094,31.1839917 88.861094,31.1839917 C88.3527681,35.9263243 90.2166295,39.0233578 95.4128491,40.6686569 C103.482352,43.2240966 109.17515,33.7313018 109.17515,33.7313018 C109.17515,33.7313018 111.58484,38.0392754 110.380221,40.1042225 C109.17515,42.1687825 101.795162,45.6529452 93.8124135,43.0719549"
                                id="Fill-34" fill="#FFFFFE"></path>
                            <path
                                d="M93.8124135,43.0719549 C85.8296646,40.4913517 85.3778194,34.2972847 85.3778194,34.2972847 C82.8176646,35.2004571 77.4520031,34.3294164 75.1362965,30.2966916 C73.6420445,27.6947963 69.4127735,26.704907 69.4127735,26.704907 C65.3461669,30.7910556 63.3883217,25.7804425 63.3883217,25.7804425 C62.4846313,27.0707441 60.2254054,26.1675717 58.8698698,24.6190549 C57.8170706,23.4170188 56.949076,22.8773607 56.6119995,22.69541 L56.4597276,22.69541 C56.4597276,22.69541 56.4890976,22.6826347 56.5392524,22.6570842 C56.4890976,22.6315337 56.4597276,22.6187584 56.4597276,22.6187584 L56.6119995,22.6187584 C56.949076,22.4368077 57.8170706,21.8975367 58.8698698,20.6951135 C60.2254054,19.1465967 62.4846313,18.2434243 63.3883217,19.5337259 C63.3883217,19.5337259 65.3461669,14.5231128 69.4127735,18.6096485 C69.4127735,18.6096485 73.6420445,17.6193721 75.1362965,15.0174768 C77.4520031,10.984752 82.8176646,10.1137114 85.3778194,11.0168838 C85.3778194,11.0168838 85.8296646,4.82281673 93.8124135,2.24221355 C101.795162,-0.338776753 109.17515,3.14538595 110.380221,5.20994591 C111.58484,7.27489301 109.17515,11.5828666 109.17515,11.5828666 C109.17515,11.5828666 103.482352,2.09045891 95.4128491,4.64551156 C90.2166295,6.29081061 88.3527681,9.38784412 88.861094,14.1301767 C88.861094,14.1301767 80.6149194,12.0110315 77.3955224,16.8238216 C74.6089932,20.9893317 69.1267555,22.4174512 68.0825413,22.6570842 C69.1267555,22.8967172 74.6089932,24.3248368 77.3955224,28.4903468 C80.6149194,33.3031369 88.861094,31.1839917 88.861094,31.1839917 C88.3527681,35.9263243 90.2166295,39.0233578 95.4128491,40.6686569 C103.482352,43.2240966 109.17515,33.7313018 109.17515,33.7313018 C109.17515,33.7313018 111.58484,38.0392754 110.380221,40.1042225 C109.17515,42.1687825 101.795162,45.6529452 93.8124135,43.0719549 Z"
                                id="Stroke-36" stroke="#D3C7A4" stroke-linecap="round"></path>
                            <path
                                d="M126.345267,10.0491382 C126.345267,10.0491382 130.110493,6.37141091 135.08079,6.62962608 C140.051087,6.88784125 143.214003,8.41042035 144.042687,6.61685081 C144.042687,6.61685081 140.492991,4.53680568 144.042687,3.01616223 C145.745692,2.28681083 146.822891,2.87718285 147.437852,3.52833414 C147.91003,4.02889218 148.221351,5.25493033 147.988651,6.08261253 C147.754143,6.91494029 147.171263,7.88624742 145.77461,8.436358 C142.98808,9.53309499 139.373319,8.50062145 139.373319,8.50062145 C139.373319,8.50062145 135.38217,7.46853503 133.348867,9.79131016 C130.961769,12.517861 127.851267,13.0435825 127.324415,13.0819083 C126.797112,13.1198469 126.345267,10.0491382 126.345267,10.0491382"
                                id="Fill-38" fill="#9E8D66"></path>
                            <path
                                d="M126.345267,10.0491382 C126.345267,10.0491382 130.110493,6.37141091 135.08079,6.62962608 C140.051087,6.88784125 143.214003,8.41042035 144.042687,6.61685081 C144.042687,6.61685081 140.492991,4.53680568 144.042687,3.01616223 C145.745692,2.28681083 146.822891,2.87718285 147.437852,3.52833414 C147.91003,4.02889218 148.221351,5.25493033 147.988651,6.08261253 C147.754143,6.91494029 147.171263,7.88624742 145.77461,8.436358 C142.98808,9.53309499 139.373319,8.50062145 139.373319,8.50062145 C139.373319,8.50062145 135.38217,7.46853503 133.348867,9.79131016 C130.961769,12.517861 127.851267,13.0435825 127.324415,13.0819083 C126.797112,13.1198469 126.345267,10.0491382 126.345267,10.0491382 Z"
                                id="Stroke-40" stroke="#FAF9F3" stroke-width="0.5" fill="#035B73"
                                stroke-linecap="round"></path>
                            <path
                                d="M106.961379,21.007488 C106.961379,21.007488 119.567408,19.2758592 120.697021,16.3723902 C120.697021,16.3723902 118.814182,13.7913999 121.525253,11.5975388 C124.236325,9.40406484 123.709473,8.6940699 122.504402,7.33911774 C122.504402,7.33911774 130.110312,8.6940699 126.646467,14.7592229 C123.18217,20.8243759 109.928195,22.6953713 109.928195,22.6953713 C109.928195,22.6953713 107.834344,22.376764 106.961379,21.007488"
                                id="Fill-42" fill="#9E8D66"></path>
                            <path
                                d="M106.961379,21.007488 C106.961379,21.007488 119.567408,19.2758592 120.697021,16.3723902 C120.697021,16.3723902 118.814182,13.7913999 121.525253,11.5975388 C124.236325,9.40406484 123.709473,8.6940699 122.504402,7.33911774 C122.504402,7.33911774 130.110312,8.6940699 126.646467,14.7592229 C123.18217,20.8243759 109.928195,22.6953713 109.928195,22.6953713 C109.928195,22.6953713 107.834344,22.376764 106.961379,21.007488 Z"
                                id="Stroke-44" stroke="#FAF9F3" stroke-width="0.5" fill="#035B73"
                                stroke-linecap="round"></path>
                            <path
                                d="M119.696455,22.6731888 C115.789802,22.6731888 108.750958,21.5389003 107.997732,13.7963165 C107.244958,6.05411982 111.881793,4.29732756 114.258498,3.46809684 C118.230669,2.08217434 127.154612,2.419751 128.98097,4.04879062 C128.98097,4.04879062 130.894986,0.769806393 133.423964,2.67990181 C135.513748,4.25861464 131.221219,7.88098247 128.848128,5.95385336 C127.968837,5.24037427 125.064828,4.25861464 123.878734,4.1134412 C121.865764,3.86683991 117.02605,3.85522603 115.971444,7.33938873 C115.971444,7.33938873 116.922126,11.4251502 115.237195,13.0820631 C114.220543,14.0820178 112.112234,13.6627569 111.886311,11.6624604 C111.886311,11.6624604 110.51225,14.5876085 113.373334,17.8565274 C115.237195,19.985738 119.525206,21.8246016 122.410237,20.663214"
                                id="Fill-46" fill="#9E8D66"></path>
                            <path
                                d="M119.696455,22.6731888 C115.789802,22.6731888 108.750958,21.5389003 107.997732,13.7963165 C107.244958,6.05411982 111.881793,4.29732756 114.258498,3.46809684 C118.230669,2.08217434 127.154612,2.419751 128.98097,4.04879062 C128.98097,4.04879062 130.894986,0.769806393 133.423964,2.67990181 C135.513748,4.25861464 131.221219,7.88098247 128.848128,5.95385336 C127.968837,5.24037427 125.064828,4.25861464 123.878734,4.1134412 C121.865764,3.86683991 117.02605,3.85522603 115.971444,7.33938873 C115.971444,7.33938873 116.922126,11.4251502 115.237195,13.0820631 C114.220543,14.0820178 112.112234,13.6627569 111.886311,11.6624604 C111.886311,11.6624604 110.51225,14.5876085 113.373334,17.8565274 C115.237195,19.985738 119.525206,21.8246016 122.410237,20.663214"
                                id="Stroke-48" stroke="#FAF9F3" stroke-width="0.5" fill="#035B73"
                                stroke-linecap="round"></path>
                            <path
                                d="M126.345267,35.6333449 C126.345267,35.6333449 130.110493,39.3110722 135.08079,39.0532442 C140.051087,38.795029 143.214003,37.2724499 144.042687,39.0660194 C144.042687,39.0660194 140.492991,41.1456774 144.042687,42.6663209 C145.745692,43.3960594 146.822891,42.8053003 147.437852,42.1545361 C147.91003,41.6539781 148.221351,40.4279399 147.988651,39.5998706 C147.754143,38.76793 147.171263,37.7962357 145.77461,37.2465123 C142.98808,36.1497753 139.373319,37.1818617 139.373319,37.1818617 C139.373319,37.1818617 135.38217,38.2143352 133.348867,35.8915601 C130.961769,33.1646221 127.851267,32.6392878 127.324415,32.600962 C126.797112,32.5626362 126.345267,35.6333449 126.345267,35.6333449"
                                id="Fill-50" fill="#FFFFFE"></path>
                            <path
                                d="M126.345267,35.6333449 C126.345267,35.6333449 130.110493,39.3110722 135.08079,39.0532442 C140.051087,38.795029 143.214003,37.2724499 144.042687,39.0660194 C144.042687,39.0660194 140.492991,41.1456774 144.042687,42.6663209 C145.745692,43.3960594 146.822891,42.8053003 147.437852,42.1545361 C147.91003,41.6539781 148.221351,40.4279399 147.988651,39.5998706 C147.754143,38.76793 147.171263,37.7962357 145.77461,37.2465123 C142.98808,36.1497753 139.373319,37.1818617 139.373319,37.1818617 C139.373319,37.1818617 135.38217,38.2143352 133.348867,35.8915601 C130.961769,33.1646221 127.851267,32.6392878 127.324415,32.600962 C126.797112,32.5626362 126.345267,35.6333449 126.345267,35.6333449 Z"
                                id="Stroke-52" stroke="#FAF9F3" stroke-width="0.5" fill="#035B73"
                                stroke-linecap="round"></path>
                            <path
                                d="M106.961379,24.6749951 C106.961379,24.6749951 119.567408,26.4070111 120.697021,29.31048 C120.697021,29.31048 118.814182,31.8914703 121.525253,34.0849443 C124.236325,36.2788054 123.709473,36.9884132 122.504402,38.3433654 C122.504402,38.3433654 130.110312,36.9884132 126.646467,30.9236473 C123.18217,24.8584943 109.928195,22.987499 109.928195,22.987499 C109.928195,22.987499 107.834344,23.3057192 106.961379,24.6749951"
                                id="Fill-54" fill="#FFFFFE"></path>
                            <path
                                d="M106.961379,24.6749951 C106.961379,24.6749951 119.567408,26.4070111 120.697021,29.31048 C120.697021,29.31048 118.814182,31.8914703 121.525253,34.0849443 C124.236325,36.2788054 123.709473,36.9884132 122.504402,38.3433654 C122.504402,38.3433654 130.110312,36.9884132 126.646467,30.9236473 C123.18217,24.8584943 109.928195,22.987499 109.928195,22.987499 C109.928195,22.987499 107.834344,23.3057192 106.961379,24.6749951 Z"
                                id="Stroke-56" stroke="#FAF9F3" stroke-width="0.5" fill="#035B73"
                                stroke-linecap="round"></path>
                            <path
                                d="M119.696455,23.0092943 C115.789802,23.0092943 108.750958,24.1435829 107.997732,31.8861667 C107.244958,39.6287504 111.881793,41.3855427 114.258498,42.2143863 C118.230669,43.6003088 127.154612,43.2631193 128.98097,41.6336925 C128.98097,41.6336925 130.894986,44.9130639 133.423964,43.0029684 C135.513748,41.4242556 131.221219,37.8015007 128.848128,39.7286298 C127.968837,40.442496 125.064828,41.4242556 123.878734,41.5694291 C121.865764,41.8156432 117.02605,41.8272571 115.971444,38.3430944 C115.971444,38.3430944 116.922126,34.2573329 115.237195,32.60042 C114.220543,31.6008524 112.112234,32.0201134 111.886311,34.0204099 C111.886311,34.0204099 110.51225,31.0952617 113.373334,27.8263428 C115.237195,25.6971323 119.525206,23.8582687 122.410237,25.0196562"
                                id="Fill-58" fill="#FFFFFE"></path>
                            <path
                                d="M119.696455,23.0092943 C115.789802,23.0092943 108.750958,24.1435829 107.997732,31.8861667 C107.244958,39.6287504 111.881793,41.3855427 114.258498,42.2143863 C118.230669,43.6003088 127.154612,43.2631193 128.98097,41.6336925 C128.98097,41.6336925 130.894986,44.9130639 133.423964,43.0029684 C135.513748,41.4242556 131.221219,37.8015007 128.848128,39.7286298 C127.968837,40.442496 125.064828,41.4242556 123.878734,41.5694291 C121.865764,41.8156432 117.02605,41.8272571 115.971444,38.3430944 C115.971444,38.3430944 116.922126,34.2573329 115.237195,32.60042 C114.220543,31.6008524 112.112234,32.0201134 111.886311,34.0204099 C111.886311,34.0204099 110.51225,31.0952617 113.373334,27.8263428 C115.237195,25.6971323 119.525206,23.8582687 122.410237,25.0196562"
                                id="Stroke-60" stroke="#FAF9F3" stroke-width="0.5" fill="#035B73"
                                stroke-linecap="round"></path>
                            <path
                                d="M20.0109581,22.6954874 C20.0109581,22.6954874 29.3867456,20.5662769 31.3070877,17.2756788 C31.3070877,17.2756788 34.470004,22.6954874 37.4069977,22.6954874 C34.470004,22.6954874 31.3070877,28.1152961 31.3070877,28.1152961 C29.3867456,24.824698 20.0109581,22.6954874 20.0109581,22.6954874"
                                id="Fill-62" fill="#035B73"></path>
                            <path
                                d="M20.0109581,22.6954874 C20.0109581,22.6954874 29.3867456,20.5662769 31.3070877,17.2756788 C31.3070877,17.2756788 34.470004,22.6954874 37.4069977,22.6954874 C34.470004,22.6954874 31.3070877,28.1152961 31.3070877,28.1152961 C29.3867456,24.824698 20.0109581,22.6954874 20.0109581,22.6954874 Z"
                                id="Stroke-64" stroke="#FFFFFF" stroke-linecap="round"></path>
                        </g>
                        <path
                            d="M330.042498,49.0656438 C336.065594,49.114035 336.23594,43.3554883 336.23594,43.3554883 L341.577202,43.3554883 C347.941441,43.3554883 349.134765,36.8226832 349.134765,36.8226832 C355.896628,39.677761 364.703994,30.580225 364.703994,30.580225 C366.181076,31.8867861 370.755557,32.3505668 371.994968,30.0680531 C373.148981,27.9415525 375.817578,26.4890438 376.150136,26.3136743 C375.817578,26.1383047 373.148981,24.685796 371.994968,22.5592954 C370.755557,20.2763945 366.181076,20.7405624 364.703994,22.0471235 C364.703994,22.0471235 355.896628,12.9495875 349.134765,15.8046653 C349.134765,15.8046653 347.941441,9.27186022 341.577202,9.27186022 L336.23594,9.27186022 C336.23594,9.27186022 336.065594,3.51331353 330.042498,3.56170468 C324.01895,3.61009583 250.877866,3.61009583 250.877866,3.61009583 C250.877866,3.61009583 177.736331,3.61009583 171.713234,3.56170468 C165.690138,3.51331353 165.519341,9.27186022 165.519341,9.27186022 L160.178079,9.27186022 C153.813839,9.27186022 152.620968,15.8046653 152.620968,15.8046653 C145.859105,12.9495875 137.051738,22.0471235 137.051738,22.0471235 C135.574205,20.7405624 130.999724,20.2763945 129.760765,22.5592954 C128.6063,24.685796 125.938154,26.1383047 125.605144,26.3136743 C125.938154,26.4890438 128.6063,27.9415525 129.760765,30.0680531 C130.999724,32.3505668 135.574205,31.8867861 137.051738,30.580225 C137.051738,30.580225 145.859105,39.677761 152.620968,36.8226832 C152.620968,36.8226832 153.813839,43.3554883 160.178079,43.3554883 L165.519341,43.3554883 C165.519341,43.3554883 165.690138,49.114035 171.713234,49.0656438 C177.736331,49.0172527 250.877866,49.0172527 250.877866,49.0172527 C250.877866,49.0172527 324.01895,49.0172527 330.042498,49.0656438"
                            id="Fill-70" fill="#E5DDC6" fill-rule="evenodd"></path>
                        <path
                            d="M330.042498,49.0656438 C336.065594,49.114035 336.23594,43.3554883 336.23594,43.3554883 L341.577202,43.3554883 C347.941441,43.3554883 349.134765,36.8226832 349.134765,36.8226832 C355.896628,39.677761 364.703994,30.580225 364.703994,30.580225 C366.181076,31.8867861 370.755557,32.3505668 371.994968,30.0680531 C373.148981,27.9415525 375.817578,26.4890438 376.150136,26.3136743 C375.817578,26.1383047 373.148981,24.685796 371.994968,22.5592954 C370.755557,20.2763945 366.181076,20.7405624 364.703994,22.0471235 C364.703994,22.0471235 355.896628,12.9495875 349.134765,15.8046653 C349.134765,15.8046653 347.941441,9.27186022 341.577202,9.27186022 L336.23594,9.27186022 C336.23594,9.27186022 336.065594,3.51331353 330.042498,3.56170468 C324.01895,3.61009583 250.877866,3.61009583 250.877866,3.61009583 C250.877866,3.61009583 177.736331,3.61009583 171.713234,3.56170468 C165.690138,3.51331353 165.519341,9.27186022 165.519341,9.27186022 L160.178079,9.27186022 C153.813839,9.27186022 152.620968,15.8046653 152.620968,15.8046653 C145.859105,12.9495875 137.051738,22.0471235 137.051738,22.0471235 C135.574205,20.7405624 130.999724,20.2763945 129.760765,22.5592954 C128.6063,24.685796 125.938154,26.1383047 125.605144,26.3136743 C125.938154,26.4890438 128.6063,27.9415525 129.760765,30.0680531 C130.999724,32.3505668 135.574205,31.8867861 137.051738,30.580225 C137.051738,30.580225 145.859105,39.677761 152.620968,36.8226832 C152.620968,36.8226832 153.813839,43.3554883 160.178079,43.3554883 L165.519341,43.3554883 C165.519341,43.3554883 165.690138,49.114035 171.713234,49.0656438 C177.736331,49.0172527 250.877866,49.0172527 250.877866,49.0172527 C250.877866,49.0172527 324.01895,49.0172527 330.042498,49.0656438 Z"
                            id="Stroke-72" stroke="#FFFFFE" stroke-width="1" stroke-linecap="round"></path>
                        <path
                            d="M250.840318,46.9326781 C250.840318,46.9326781 306.172376,46.3434675 323.917691,46.9241613 C333.476476,47.2369617 334.1556,38.7301849 334.1556,38.7301849 C334.1556,38.7301849 335.567616,39.3751421 340.345427,39.2055795 C345.889115,39.0089179 346.516277,33.0521611 346.516277,33.0521611 C346.516277,33.0521611 355.540529,34.019984 357.739659,30.9876011 C359.503663,28.5544941 362.925486,26.9533278 364.210534,26.4148311 L364.716149,26.4148311 C364.716149,26.4148311 364.621261,26.3796024 364.456338,26.3134033 C364.621261,26.2475913 364.716149,26.2127497 364.716149,26.2127497 L364.210534,26.2127497 C362.925486,25.674253 359.503663,24.0726995 357.739659,21.6399797 C355.540529,18.6075968 346.516277,19.5754197 346.516277,19.5754197 C346.516277,19.5754197 345.889115,13.6178886 340.345427,13.4216141 C335.567616,13.2524387 334.1556,13.8973959 334.1556,13.8973959 C334.1556,13.8973959 333.476476,5.39023198 323.917691,5.70303236 C306.172376,6.28372615 250.840318,5.69490265 250.840318,5.69490265 C250.840318,5.69490265 195.50826,6.28372615 177.762944,5.70303236 C168.203708,5.39023198 167.525036,13.8973959 167.525036,13.8973959 C167.525036,13.8973959 166.112568,13.2524387 161.335209,13.4216141 C155.791069,13.6178886 155.164359,19.5754197 155.164359,19.5754197 C155.164359,19.5754197 146.140107,18.6075968 143.940977,21.6399797 C142.176521,24.0726995 138.75515,25.674253 137.470102,26.2127497 L136.964035,26.2127497 C136.964035,26.2127497 137.059375,26.2475913 137.223846,26.3134033 C137.059375,26.3796024 136.964035,26.4148311 136.964035,26.4148311 L137.470102,26.4148311 C138.75515,26.9533278 142.176521,28.5544941 143.940977,30.9876011 C146.140107,34.019984 155.164359,33.0521611 155.164359,33.0521611 C155.164359,33.0521611 155.791069,39.0089179 161.335209,39.2055795 C166.112568,39.3751421 167.525036,38.7301849 167.525036,38.7301849 C167.525036,38.7301849 168.203708,47.2369617 177.762944,46.9241613 C195.50826,46.3434675 250.840318,46.9326781 250.840318,46.9326781"
                            id="Fill-78" fill-opacity="0.6" fill="#FFFFFF" fill-rule="evenodd"></path>
                        <path
                            d="M250.840318,46.9326781 C250.840318,46.9326781 306.172376,46.3434675 323.917691,46.9241613 C333.476476,47.2369617 334.1556,38.7301849 334.1556,38.7301849 C334.1556,38.7301849 335.567616,39.3751421 340.345427,39.2055795 C345.889115,39.0089179 346.516277,33.0521611 346.516277,33.0521611 C346.516277,33.0521611 355.540529,34.019984 357.739659,30.9876011 C359.503663,28.5544941 362.925486,26.9533278 364.210534,26.4148311 L364.716149,26.4148311 C364.716149,26.4148311 364.621261,26.3796024 364.456338,26.3134033 C364.621261,26.2475913 364.716149,26.2127497 364.716149,26.2127497 L364.210534,26.2127497 C362.925486,25.674253 359.503663,24.0726995 357.739659,21.6399797 C355.540529,18.6075968 346.516277,19.5754197 346.516277,19.5754197 C346.516277,19.5754197 345.889115,13.6178886 340.345427,13.4216141 C335.567616,13.2524387 334.1556,13.8973959 334.1556,13.8973959 C334.1556,13.8973959 333.476476,5.39023198 323.917691,5.70303236 C306.172376,6.28372615 250.840318,5.69490265 250.840318,5.69490265 C250.840318,5.69490265 195.50826,6.28372615 177.762944,5.70303236 C168.203708,5.39023198 167.525036,13.8973959 167.525036,13.8973959 C167.525036,13.8973959 166.112568,13.2524387 161.335209,13.4216141 C155.791069,13.6178886 155.164359,19.5754197 155.164359,19.5754197 C155.164359,19.5754197 146.140107,18.6075968 143.940977,21.6399797 C142.176521,24.0726995 138.75515,25.674253 137.470102,26.2127497 L136.964035,26.2127497 C136.964035,26.2127497 137.059375,26.2475913 137.223846,26.3134033 C137.059375,26.3796024 136.964035,26.4148311 136.964035,26.4148311 L137.470102,26.4148311 C138.75515,26.9533278 142.176521,28.5544941 143.940977,30.9876011 C146.140107,34.019984 155.164359,33.0521611 155.164359,33.0521611 C155.164359,33.0521611 155.791069,39.0089179 161.335209,39.2055795 C166.112568,39.3751421 167.525036,38.7301849 167.525036,38.7301849 C167.525036,38.7301849 168.203708,47.2369617 177.762944,46.9241613 C195.50826,46.3434675 250.840318,46.9326781 250.840318,46.9326781 Z"
                            id="Stroke-80" stroke="#035B73" stroke-width="1" stroke-linecap="round"></path>
                    </g>
                </g>
            </g>
        </g>
    </g>
</svg>